<svg xmlns="http://www.w3.org/2000/svg" viewBox="0 0 66 66" fill="none">
  <!-- Pinwheel of 8 music notes: pink (#EC1E8C) and purple (#7012D4) -->
  <!-- Center at (33, 33) -->
  <g transform="translate(33,33)">
    <!-- 0° pink -->
    <g transform="rotate(0)">
      <ellipse cx="0" cy="-23" rx="6.8" ry="4.4" transform="rotate(-22,0,-23)" fill="#EC1E8C"/>
      <line x1="5.5" y1="-19.5" x2="5.5" y2="-8" stroke="#EC1E8C" stroke-width="2.2" stroke-linecap="round"/>
      <path d="M5.5,-8 Q14,-3.5 10,3" stroke="#EC1E8C" stroke-width="2.2" fill="none" stroke-linecap="round"/>
    </g>
    <!-- 45° purple -->
    <g transform="rotate(45)">
      <ellipse cx="0" cy="-23" rx="6.8" ry="4.4" transform="rotate(-22,0,-23)" fill="#7012D4"/>
      <line x1="5.5" y1="-19.5" x2="5.5" y2="-8" stroke="#7012D4" stroke-width="2.2" stroke-linecap="round"/>
      <path d="M5.5,-8 Q14,-3.5 10,3" stroke="#7012D4" stroke-width="2.2" fill="none" stroke-linecap="round"/>
    </g>
    <!-- 90° pink -->
    <g transform="rotate(90)">
      <ellipse cx="0" cy="-23" rx="6.8" ry="4.4" transform="rotate(-22,0,-23)" fill="#EC1E8C"/>
      <line x1="5.5" y1="-19.5" x2="5.5" y2="-8" stroke="#EC1E8C" stroke-width="2.2" stroke-linecap="round"/>
      <path d="M5.5,-8 Q14,-3.5 10,3" stroke="#EC1E8C" stroke-width="2.2" fill="none" stroke-linecap="round"/>
    </g>
    <!-- 135° purple -->
    <g transform="rotate(135)">
      <ellipse cx="0" cy="-23" rx="6.8" ry="4.4" transform="rotate(-22,0,-23)" fill="#7012D4"/>
      <line x1="5.5" y1="-19.5" x2="5.5" y2="-8" stroke="#7012D4" stroke-width="2.2" stroke-linecap="round"/>
      <path d="M5.5,-8 Q14,-3.5 10,3" stroke="#7012D4" stroke-width="2.2" fill="none" stroke-linecap="round"/>
    </g>
    <!-- 180° pink -->
    <g transform="rotate(180)">
      <ellipse cx="0" cy="-23" rx="6.8" ry="4.4" transform="rotate(-22,0,-23)" fill="#EC1E8C"/>
      <line x1="5.5" y1="-19.5" x2="5.5" y2="-8" stroke="#EC1E8C" stroke-width="2.2" stroke-linecap="round"/>
      <path d="M5.5,-8 Q14,-3.5 10,3" stroke="#EC1E8C" stroke-width="2.2" fill="none" stroke-linecap="round"/>
    </g>
    <!-- 225° purple -->
    <g transform="rotate(225)">
      <ellipse cx="0" cy="-23" rx="6.8" ry="4.4" transform="rotate(-22,0,-23)" fill="#7012D4"/>
      <line x1="5.5" y1="-19.5" x2="5.5" y2="-8" stroke="#7012D4" stroke-width="2.2" stroke-linecap="round"/>
      <path d="M5.5,-8 Q14,-3.5 10,3" stroke="#7012D4" stroke-width="2.2" fill="none" stroke-linecap="round"/>
    </g>
    <!-- 270° pink -->
    <g transform="rotate(270)">
      <ellipse cx="0" cy="-23" rx="6.8" ry="4.4" transform="rotate(-22,0,-23)" fill="#EC1E8C"/>
      <line x1="5.5" y1="-19.5" x2="5.5" y2="-8" stroke="#EC1E8C" stroke-width="2.2" stroke-linecap="round"/>
      <path d="M5.5,-8 Q14,-3.5 10,3" stroke="#EC1E8C" stroke-width="2.2" fill="none" stroke-linecap="round"/>
    </g>
    <!-- 315° purple -->
    <g transform="rotate(315)">
      <ellipse cx="0" cy="-23" rx="6.8" ry="4.4" transform="rotate(-22,0,-23)" fill="#7012D4"/>
      <line x1="5.5" y1="-19.5" x2="5.5" y2="-8" stroke="#7012D4" stroke-width="2.2" stroke-linecap="round"/>
      <path d="M5.5,-8 Q14,-3.5 10,3" stroke="#7012D4" stroke-width="2.2" fill="none" stroke-linecap="round"/>
    </g>
  </g>
</svg>
